<?xml version="1.0" encoding="UTF-8"?>
<!DOCTYPE svg PUBLIC "-//W3C//DTD SVG 1.1//EN" "http://www.w3.org/Graphics/SVG/1.1/DTD/svg11.dtd">
<!-- Creator: CorelDRAW 2017 -->
<svg xmlns="http://www.w3.org/2000/svg" xml:space="preserve" width="0.666665in" height="0.616862in" version="1.1" style="shape-rendering:geometricPrecision; text-rendering:geometricPrecision; image-rendering:optimizeQuality; fill-rule:evenodd; clip-rule:evenodd"
viewBox="0 0 56.94 52.69"
 xmlns:xlink="http://www.w3.org/1999/xlink">
 <defs>
  <style type="text/css">
   <![CDATA[
    .fil0 {fill:#595A5A;fill-rule:nonzero}
   ]]>
  </style>
 </defs>
 <g id="Layer_x0020_1">
  <metadata id="CorelCorpID_0Corel-Layer"/>
  <polygon class="fil0" points="28.47,52.69 18.63,42.85 20.31,41.17 28.47,49.33 36.63,41.17 38.31,42.85 "/>
  <polygon class="fil0" points="27.28,51.01 29.66,51.01 29.66,22.54 27.28,22.54 "/>
  <path class="fil0" d="M44.48 37.96l-10.08 0 0 -2.37 10.08 0c5.56,0 10.08,-4.52 10.08,-10.08 0,-5.56 -4.52,-10.08 -10.08,-10.08l-4.15 0 0 -1.19c0,-6.54 -5.32,-11.86 -11.86,-11.86 -5.43,0 -10.4,3.63 -11.81,8.63l-0.24 0.86 -2.18 0c-6.54,0 -11.86,5.32 -11.86,11.86 0,6.54 5.32,11.86 11.86,11.86l8.3 0 0 2.37 -8.3 0c-7.85,0 -14.23,-6.39 -14.23,-14.23 0,-7.85 6.39,-14.24 14.23,-14.24l0.42 0c2,-5.55 7.67,-9.49 13.82,-9.49 7.45,0 13.58,5.75 14.19,13.05l1.83 0c6.87,0 12.46,5.59 12.46,12.46 0,6.87 -5.59,12.46 -12.46,12.46z"/>
 </g>
</svg>
