<?xml version="1.0" encoding="UTF-8"?>
<!DOCTYPE svg PUBLIC "-//W3C//DTD SVG 1.1//EN" "http://www.w3.org/Graphics/SVG/1.1/DTD/svg11.dtd">
<!-- Creator: CorelDRAW 2017 -->
<svg xmlns="http://www.w3.org/2000/svg" xml:space="preserve" width="0.5in" height="0.52778in" version="1.1" style="shape-rendering:geometricPrecision; text-rendering:geometricPrecision; image-rendering:optimizeQuality; fill-rule:evenodd; clip-rule:evenodd"
viewBox="0 0 31.36 33.1"
 xmlns:xlink="http://www.w3.org/1999/xlink">
 <defs>
  <style type="text/css">
   <![CDATA[
    .fil0 {fill:#595A5A;fill-rule:nonzero}
   ]]>
  </style>
 </defs>
 <g id="Layer_x0020_1">
  <metadata id="CorelCorpID_0Corel-Layer"/>
  <path class="fil0" d="M1.74 31.36l27.87 0 0 -29.62 -27.87 0 0 29.62zm29.62 1.74l-31.36 0 0 -33.1 31.36 0 0 33.1z"/>
  <polygon class="fil0" points="0.87,12.2 30.49,12.2 30.49,10.45 0.87,10.45 "/>
  <polygon class="fil0" points="0.87,22.65 30.49,22.65 30.49,20.91 0.87,20.91 "/>
  <polygon class="fil0" points="19.16,27.87 26.13,27.87 26.13,26.13 19.16,26.13 "/>
  <polygon class="fil0" points="19.16,17.42 26.13,17.42 26.13,15.68 19.16,15.68 "/>
  <polygon class="fil0" points="19.16,6.97 26.13,6.97 26.13,5.23 19.16,5.23 "/>
  <polygon class="fil0" points="5.23,27.87 8.71,27.87 8.71,26.13 5.23,26.13 "/>
  <polygon class="fil0" points="5.23,17.42 8.71,17.42 8.71,15.68 5.23,15.68 "/>
  <polygon class="fil0" points="5.23,6.97 8.71,6.97 8.71,5.23 5.23,5.23 "/>
 </g>
</svg>
