<?xml version="1.0" encoding="UTF-8"?>
<!DOCTYPE svg PUBLIC "-//W3C//DTD SVG 1.1//EN" "http://www.w3.org/Graphics/SVG/1.1/DTD/svg11.dtd">
<!-- Creator: CorelDRAW 2017 -->
<svg xmlns="http://www.w3.org/2000/svg" xml:space="preserve" width="0.61111in" height="0.61111in" version="1.1" style="shape-rendering:geometricPrecision; text-rendering:geometricPrecision; image-rendering:optimizeQuality; fill-rule:evenodd; clip-rule:evenodd"
viewBox="0 0 96.72 96.72"
 xmlns:xlink="http://www.w3.org/1999/xlink">
 <defs>
  <style type="text/css">
   <![CDATA[
    .fil0 {fill:#595A5A;fill-rule:nonzero}
   ]]>
  </style>
 </defs>
 <g id="Layer_x0020_1">
  <metadata id="CorelCorpID_0Corel-Layer"/>
  <path class="fil0" d="M48.36 37.37c-6.06,0 -10.99,4.93 -10.99,10.99 0,6.06 4.93,10.99 10.99,10.99 6.06,0 10.99,-4.93 10.99,-10.99 0,-6.06 -4.93,-10.99 -10.99,-10.99zm0 26.38c-8.48,0 -15.39,-6.9 -15.39,-15.39 0,-8.48 6.9,-15.39 15.39,-15.39 8.48,0 15.39,6.9 15.39,15.39 0,8.48 -6.9,15.39 -15.39,15.39z"/>
  <path class="fil0" d="M45.38 92.33l5.96 0 4.19 -12.24 10.75 -3.42 12.1 4.52 2.81 -2.81 -4.52 -12.1 3.42 -10.75 12.24 -4.19 0 -5.96 -12.24 -4.19 -3.42 -10.75 4.52 -12.1 -2.81 -2.81 -12.1 4.52 -10.75 -3.43 -4.19 -12.24 -5.96 0 -4.19 12.24 -10.75 3.43 -12.1 -4.52 -2.81 2.81 4.52 12.1 -3.43 10.75 -12.24 4.19 0 5.96 12.24 4.19 3.43 10.75 -4.52 12.1 2.81 2.81 12.1 -4.52 10.75 3.42 4.19 12.24zm9.1 4.4l-12.24 0 -4.49 -13.12 -7.19 -2.29 -13.32 4.98 -6.81 -6.81 4.98 -13.32 -2.29 -7.19 -13.12 -4.49 0 -12.24 13.12 -4.49 2.29 -7.19 -4.98 -13.32 6.81 -6.81 13.32 4.98 7.19 -2.29 4.49 -13.12 12.24 0 4.49 13.12 7.19 2.29 13.32 -4.98 6.81 6.81 -4.98 13.32 2.29 7.19 13.12 4.49 0 12.24 -13.12 4.49 -2.29 7.19 4.98 13.32 -6.81 6.81 -13.32 -4.98 -7.19 2.29 -4.49 13.12z"/>
 </g>
</svg>
