<?xml version="1.0" encoding="UTF-8"?>
<!DOCTYPE svg PUBLIC "-//W3C//DTD SVG 1.1//EN" "http://www.w3.org/Graphics/SVG/1.1/DTD/svg11.dtd">
<!-- Creator: CorelDRAW 2017 -->
<svg xmlns="http://www.w3.org/2000/svg" xml:space="preserve" width="0.52778in" height="0.52778in" version="1.1" style="shape-rendering:geometricPrecision; text-rendering:geometricPrecision; image-rendering:optimizeQuality; fill-rule:evenodd; clip-rule:evenodd"
viewBox="0 0 35.06 35.06"
 xmlns:xlink="http://www.w3.org/1999/xlink">
 <defs>
  <style type="text/css">
   <![CDATA[
    .fil0 {fill:#595A5A;fill-rule:nonzero}
   ]]>
  </style>
 </defs>
 <g id="Layer_x0020_1">
  <metadata id="CorelCorpID_0Corel-Layer"/>
  <path class="fil0" d="M1.85 33.22l31.37 0 0 -29.53c0,-1.02 -0.83,-1.85 -1.85,-1.85l-27.68 0c-1.02,0 -1.85,0.83 -1.85,1.85l0 29.53zm33.22 1.85l-35.06 0 0 -31.37c0,-2.04 1.66,-3.69 3.69,-3.69l27.68 0c2.04,0 3.69,1.66 3.69,3.69l0 31.37z"/>
  <polygon class="fil0" points="8.42,27.95 7.11,26.65 13.46,20.3 7.11,13.95 8.41,12.64 16.07,20.3 "/>
  <polygon class="fil0" points="17.53,27.68 28.6,27.68 28.6,25.84 17.53,25.84 "/>
  <polygon class="fil0" points="31.37,3.69 29.53,3.69 29.53,5.54 31.37,5.54 "/>
  <polygon class="fil0" points="27.68,3.69 25.84,3.69 25.84,5.54 27.68,5.54 "/>
 </g>
</svg>
